<svg id="Camada_1" data-name="Camada 1" xmlns="http://www.w3.org/2000/svg" xmlns:xlink="http://www.w3.org/1999/xlink" viewBox="0 0 48 48"><defs><style>.cls-1{fill:url(#Gradiente_sem_nome_3);}.cls-2{fill:url(#Gradiente_sem_nome_3-2);}.cls-3{fill:url(#Gradiente_sem_nome_3-3);}</style><linearGradient id="Gradiente_sem_nome_3" x1="32.44" y1="35.45" x2="-9.6" y2="-21.57" gradientUnits="userSpaceOnUse"><stop offset="0.02" stop-color="#384fc2"/><stop offset="0.99" stop-color="#00e0c2"/></linearGradient><linearGradient id="Gradiente_sem_nome_3-2" x1="25.42" y1="40.63" x2="-16.62" y2="-16.39" xlink:href="#Gradiente_sem_nome_3"/><linearGradient id="Gradiente_sem_nome_3-3" x1="32.51" y1="35.4" x2="-9.53" y2="-21.62" xlink:href="#Gradiente_sem_nome_3"/></defs><title>alimentacao</title><path class="cls-1" d="M33.28,5.44H14.72A5.58,5.58,0,0,0,9.15,11V37a5.58,5.58,0,0,0,5.57,5.57H33.28A5.58,5.58,0,0,0,38.85,37V11A5.58,5.58,0,0,0,33.28,5.44ZM12.86,11a1.86,1.86,0,0,1,1.86-1.86H33.28A1.86,1.86,0,0,1,35.14,11v7.42H12.86ZM35.14,37a1.86,1.86,0,0,1-1.86,1.86H14.72A1.86,1.86,0,0,1,12.86,37V22.14H35.14Z"/><path class="cls-2" d="M16.58,33.28a1.85,1.85,0,0,0,1.85-1.85V25.86a1.86,1.86,0,1,0-3.71,0v5.57A1.85,1.85,0,0,0,16.58,33.28Z"/><path class="cls-3" d="M16.58,11a1.85,1.85,0,0,0-1.86,1.85v1.86a1.86,1.86,0,1,0,3.71,0V12.86A1.85,1.85,0,0,0,16.58,11Z"/></svg>