<svg id="Camada_1" data-name="Camada 1" xmlns="http://www.w3.org/2000/svg" xmlns:xlink="http://www.w3.org/1999/xlink" viewBox="0 0 48 48"><defs><style>.cls-1{fill:url(#Gradiente_sem_nome_2);}</style><linearGradient id="Gradiente_sem_nome_2" x1="37.18" y1="38.37" x2="-15.03" y2="-18.54" gradientUnits="userSpaceOnUse"><stop offset="0.06" stop-color="#5820d7"/><stop offset="1" stop-color="#ff2c14"/></linearGradient></defs><title>box</title><path class="cls-1" d="M40.85,10.56,26.41,3.34h0a5.44,5.44,0,0,0-4.82,0L7.16,10.56a5.37,5.37,0,0,0-3,4.84V32.56a5.4,5.4,0,0,0,3,4.88l14.43,7.21a5.42,5.42,0,0,0,4.84,0l14.43-7.21a5.38,5.38,0,0,0,3-4.85V15.4A5.38,5.38,0,0,0,40.85,10.56Zm-17.65-4a1.78,1.78,0,0,1,1.6,0L38,13.17l-5,2.49-14-7Zm.8,13.6-14-7,5-2.49,14,7Zm-15.25,14a1.81,1.81,0,0,1-1-1.63V16.08L22.2,23.3V40.93Zm30.48,0L25.8,40.92V23.3l14.44-7.22V32.59A1.81,1.81,0,0,1,39.23,34.21Z"/></svg>