<svg id="Camada_1" data-name="Camada 1" xmlns="http://www.w3.org/2000/svg" xmlns:xlink="http://www.w3.org/1999/xlink" viewBox="0 0 48 48"><defs><style>.cls-1{fill:url(#Gradiente_sem_nome_12);}.cls-2{fill:url(#Gradiente_sem_nome_12-2);}.cls-3{fill:url(#Gradiente_sem_nome_12-3);}</style><linearGradient id="Gradiente_sem_nome_12" x1="-2.21" y1="63.62" x2="41.89" y2="-0.12" gradientUnits="userSpaceOnUse"><stop offset="0" stop-color="#ff5e1c"/><stop offset="0.5" stop-color="#ff9023"/><stop offset="0.98" stop-color="#ffc42b"/></linearGradient><linearGradient id="Gradiente_sem_nome_12-2" x1="-7.15" y1="60.2" x2="36.94" y2="-3.54" xlink:href="#Gradiente_sem_nome_12"/><linearGradient id="Gradiente_sem_nome_12-3" x1="3.59" y1="67.63" x2="47.68" y2="3.89" xlink:href="#Gradiente_sem_nome_12"/></defs><title>carro</title><path class="cls-1" d="M38.12,18.7h-.51l-2.68-7.64a1.76,1.76,0,0,0-1.66-1.18H14.73a1.75,1.75,0,0,0-1.67,1.18L10.39,18.7H9.88a1.77,1.77,0,0,0-1.77,1.77V32.83a1.75,1.75,0,0,0,1.77,1.76h1.76v1.77a1.75,1.75,0,0,0,1.77,1.76h1.76a1.76,1.76,0,0,0,1.77-1.76V34.59H31.06v1.77a1.75,1.75,0,0,0,1.77,1.76h1.76a1.76,1.76,0,0,0,1.77-1.76V34.59h1.76a1.76,1.76,0,0,0,1.77-1.76V20.47A1.78,1.78,0,0,0,38.12,18.7ZM16,13.41H32l1.86,5.29H14.13ZM36.36,31.06H11.64V22.23H36.36Z"/><circle class="cls-2" cx="16.06" cy="26.65" r="2.65"/><circle class="cls-3" cx="31.94" cy="26.65" r="2.65"/></svg>