<svg id="Camada_1" data-name="Camada 1" xmlns="http://www.w3.org/2000/svg" xmlns:xlink="http://www.w3.org/1999/xlink" viewBox="0 0 48 48"><defs><style>.cls-1{fill:url(#Gradiente_sem_nome_7);}.cls-2{fill:url(#Gradiente_sem_nome_7-2);}.cls-3{fill:url(#Gradiente_sem_nome_7-3);}.cls-4{fill:url(#Gradiente_sem_nome_7-4);}</style><linearGradient id="Gradiente_sem_nome_7" x1="37.91" y1="45.1" x2="-15.71" y2="-3.34" gradientUnits="userSpaceOnUse"><stop offset="0.14" stop-color="#ff2c14"/><stop offset="1" stop-color="#ffc42b"/></linearGradient><linearGradient id="Gradiente_sem_nome_7-2" x1="34.48" y1="48.9" x2="-19.14" y2="0.45" xlink:href="#Gradiente_sem_nome_7"/><linearGradient id="Gradiente_sem_nome_7-3" x1="30.61" y1="53.18" x2="-23.01" y2="4.74" xlink:href="#Gradiente_sem_nome_7"/><linearGradient id="Gradiente_sem_nome_7-4" x1="46.2" y1="35.92" x2="-7.42" y2="-12.53" xlink:href="#Gradiente_sem_nome_7"/></defs><title>food</title><path class="cls-1" d="M4.26,27.45a2,2,0,0,0,2-2c0-2.88,5.45-3.95,8.89-3.95S24,22.6,24,25.48a2,2,0,0,0,3.95,0c0-5.83-6.92-7.9-12.83-7.9S2.28,19.65,2.28,25.48A2,2,0,0,0,4.26,27.45Z"/><path class="cls-2" d="M4.26,33.38H26a2,2,0,1,0,0-4H4.26a2,2,0,1,0,0,4Z"/><path class="cls-3" d="M28,37.33a2,2,0,1,0-3.95,0v2a2,2,0,0,1-2,2H8.21a2,2,0,0,1-2-2v-2a2,2,0,1,0-4,0v2a5.93,5.93,0,0,0,5.93,5.92H22A5.93,5.93,0,0,0,28,39.3Z"/><path class="cls-4" d="M45.22,10.35a2,2,0,0,0-1.48-.66H35.85V4.75a2,2,0,0,0-4,0V9.69H24a2,2,0,0,0-1.52.71A2,2,0,0,0,22.06,12l.74,4a2,2,0,1,0,3.88-.73l-.3-1.61H41.51L38.05,41.28H29.92a2,2,0,0,0,0,3.94h9.87a2,2,0,0,0,2-1.73l4-31.59A2,2,0,0,0,45.22,10.35Z"/></svg>