<svg id="Camada_1" data-name="Camada 1" xmlns="http://www.w3.org/2000/svg" xmlns:xlink="http://www.w3.org/1999/xlink" viewBox="0 0 48 48"><defs><style>.cls-1{fill:url(#Gradiente_sem_nome_13);}</style><linearGradient id="Gradiente_sem_nome_13" x1="24.76" y1="33.48" x2="21.38" y2="-37.07" gradientUnits="userSpaceOnUse"><stop offset="0" stop-color="#f56464"/><stop offset="1" stop-color="#ff7ec4"/></linearGradient></defs><title>health</title><path class="cls-1" d="M24,41.62a1.51,1.51,0,0,1-1.06-.44L7.31,25.55A11.23,11.23,0,0,1,23.19,9.67l.81.82.81-.82a11.23,11.23,0,0,1,15.88,0h0a11.23,11.23,0,0,1,0,15.88L25.06,41.18A1.51,1.51,0,0,1,24,41.62ZM15.25,9.39a8.22,8.22,0,0,0-5.82,14L24,38,38.57,23.43a8.23,8.23,0,0,0,0-11.64h0a8.23,8.23,0,0,0-11.64,0l-1.87,1.88a1.55,1.55,0,0,1-2.12,0l-1.87-1.88A8.22,8.22,0,0,0,15.25,9.39Z"/></svg>