<svg id="Camada_1" data-name="Camada 1" xmlns="http://www.w3.org/2000/svg" xmlns:xlink="http://www.w3.org/1999/xlink" viewBox="0 0 48 48"><defs><style>.cls-1{fill:url(#Gradiente_sem_nome_4);}</style><linearGradient id="Gradiente_sem_nome_4" x1="38.03" y1="11.66" x2="-18.51" y2="88.01" gradientUnits="userSpaceOnUse"><stop offset="0.1" stop-color="#00e0c2"/><stop offset="1" stop-color="#5820d7"/></linearGradient></defs><title>music</title><path class="cls-1" d="M43.54,6.41a2,2,0,0,0-.69-1.49,2,2,0,0,0-1.59-.43L17.82,8.39a2,2,0,0,0-1.64,1.93v21.5H10.32a5.86,5.86,0,0,0,0,11.72h3.91a5.86,5.86,0,0,0,5.86-5.86V33.77h0V12L39.63,8.72V27.91H33.77a5.86,5.86,0,0,0,0,11.72h3.91a5.86,5.86,0,0,0,5.86-5.86V29.86h0ZM14.23,39.63H10.32a2,2,0,0,1,0-3.91h5.86v2A2,2,0,0,1,14.23,39.63Zm23.45-3.91H33.77a1.95,1.95,0,0,1,0-3.9h5.86v2A2,2,0,0,1,37.68,35.72Z"/></svg>